<svg width="13" height="13" viewBox="0 0 13 13" fill="none" xmlns="http://www.w3.org/2000/svg">
<g clip-path="url(#clip0_150_1271)">
<path fill-rule="evenodd" clip-rule="evenodd" d="M5.14927 2.56186C5.11445 2.35525 5.08822 2.15099 5.07127 1.9467C5.04574 1.64027 5.06152 1.3315 5.05247 1.02507C5.04852 0.895071 5.03297 0.556147 5.03924 0.507397C5.09611 0.0825758 5.43898 0.0175679 5.53927 0.00596074C5.58779 -0.00100355 6.08596 -0.0566929 6.19345 0.495807C6.3253 1.17134 6.36756 1.85151 6.3209 2.51776C6.42977 3.08419 6.61595 3.64829 6.86179 4.159C7.84004 6.19025 9.70414 6.38758 11.7238 6.369C12.0344 6.36436 12.2923 6.60811 12.3086 6.91686C12.3248 7.22793 12.0936 7.49721 11.7844 7.52507C10.6555 7.63418 8.65253 8.53955 7.96005 9.48205C7.81519 9.67937 7.73093 10.1553 7.6195 10.6219C7.46397 11.2696 7.27895 11.9103 7.07165 12.1795C7.04054 12.2213 6.66237 12.6485 6.54955 12.7112C6.27841 12.8597 6.06136 12.7738 5.9381 12.6949C5.81483 12.616 5.67531 12.4604 5.61959 12.2028C5.56133 11.9335 5.61054 11.381 5.60149 11.2626C5.56852 10.8331 5.48264 9.99043 5.30737 9.26614C5.21289 8.87614 5.11213 8.51632 4.94545 8.33757C4.32842 7.67596 3.34181 7.77347 2.51097 7.88258C2.41556 7.89419 2.32015 7.90812 2.22497 7.91973C1.88674 8.01955 1.52761 8.09382 1.14805 8.13793C0.574891 8.20525 0.480647 7.67829 0.47554 7.64347C0.464862 7.56686 0.425161 7.17222 0.857179 7.01437C0.904304 6.99812 1.25206 6.9215 1.386 6.89133C1.57265 6.84954 1.76137 6.81705 1.9508 6.78687C3.90754 6.17866 4.97029 4.47007 5.14927 2.56186ZM5.82086 4.67205C6.55954 6.19955 7.68055 6.93776 9.00934 7.27204H9.00911C8.17944 7.70615 7.42473 8.24938 7.02475 8.79491C6.87293 9.00152 6.73365 9.41704 6.60806 9.88365C6.54004 9.44954 6.44812 8.98757 6.3267 8.59292C6.18858 8.14257 6.00262 7.76884 5.79509 7.54598C5.39441 7.11652 4.89159 6.87741 4.35093 6.75902C4.99814 6.18562 5.4889 5.47063 5.82086 4.67205Z" fill="#C2E978"/>
</g>
<defs>
<clipPath id="clip0_150_1271">
<rect width="13" height="13" fill="white"/>
</clipPath>
</defs>
</svg>
