<svg width="34" height="38" viewBox="0 0 34 38" fill="none" xmlns="http://www.w3.org/2000/svg">
<path d="M30.2923 36.5777C28.2122 36.1856 26.2178 35.8012 24.2234 35.4244C23.8261 35.3475 23.5456 35.2937 23.0314 35.2783C22.6497 35.263 21.8395 35.2476 21.9096 35.6551C22.0031 35.9857 22.1122 36.2087 22.7899 36.4086C24.5428 36.916 26.358 37.1621 28.1577 37.4158C29.747 37.6388 30.9623 37.7849 32.3802 37.9002C33.0424 37.954 33.3073 37.6311 33.2294 37.0314C33.1592 36.4932 33.0969 35.9396 32.9255 35.4244C32.3179 33.5637 31.6634 31.7261 31.0246 29.8731C30.9467 29.6425 30.9 29.4579 30.7675 29.1965C30.6039 28.8813 30.5026 28.6429 30.1676 28.7352C29.8482 28.8198 29.8638 29.2811 29.9183 29.5117C30.3312 31.4493 31.2505 35.4321 31.2505 35.6551C30.23 35.0092 29.2717 34.4326 28.3446 33.8021C21.9096 29.381 15.8485 24.5448 11.0261 18.3476C7.20871 13.4422 4.04572 8.17538 1.70854 2.43187C1.56831 2.09356 1.39691 1.76294 1.22552 1.4477C0.999592 1.01713 0.804827 0.8326 0.571108 0.932556C0.158206 1.1786 0.236112 1.50922 0.275065 1.77832C0.345181 2.31654 0.532156 2.84706 0.71134 3.36221C3.18096 10.2283 7.10743 16.2409 11.8519 21.7691C16.721 27.4435 22.6731 31.8107 29.0224 35.6935C29.3652 35.8857 30.1676 36.4393 30.2923 36.5777Z" fill="white"/>
</svg>
